<svg xmlns="http://www.w3.org/2000/svg" viewBox="0 0 240 240">
  <!-- LibriSense mark, for dark backgrounds: an open book radiating sensing arcs -->
  <!-- sensing arcs -->
  <path d="M 97.5 115 A 26 26 0 0 1 142.5 115" fill="none" stroke="#F5A623" stroke-width="9" stroke-linecap="round"/>
  <path d="M 80.2 105 A 46 46 0 0 1 159.8 105" fill="none" stroke="#F5A623" stroke-width="9" stroke-linecap="round" opacity="0.62"/>
  <path d="M 62.8 95 A 66 66 0 0 1 177.2 95" fill="none" stroke="#F5A623" stroke-width="9" stroke-linecap="round" opacity="0.32"/>
  <!-- lamp dot -->
  <circle cx="120" cy="131" r="8" fill="#F5A623"/>
  <!-- open book -->
  <path d="M 116 152 C 92 138, 62 134, 38 140 L 38 178 C 62 172, 92 176, 116 190 Z" fill="#F4F7FB"/>
  <path d="M 124 152 C 148 138, 178 134, 202 140 L 202 178 C 178 172, 148 176, 124 190 Z" fill="#F4F7FB"/>
</svg>
